<svg xmlns="http://www.w3.org/2000/svg" width="128" height="128" viewBox="0 0 128 128" role="img" aria-label="Clozemaster Multilingual Helper icon">
  <rect width="128" height="128" rx="26" fill="#0f766e"/>
  <path fill="none" stroke="#ffffff" stroke-linecap="round" stroke-linejoin="round" stroke-width="8" d="M45 29h-3c-7.2 0-11 4.2-11 12v10c0 6.5-3.8 10.3-10 10.9v4.2c6.2.6 10 4.4 10 10.9v10c0 7.8 3.8 12 11 12h3"/>
  <path fill="none" stroke="#ffffff" stroke-linecap="round" stroke-linejoin="round" stroke-width="8" d="M83 29h3c7.2 0 11 4.2 11 12v10c0 6.5 3.8 10.3 10 10.9v4.2c-6.2.6-10 4.4-10 10.9v10c0 7.8-3.8 12-11 12h-3"/>
  <path fill="none" stroke="#ffffff" stroke-linecap="round" stroke-linejoin="round" stroke-width="10" d="M79 47c-4.5-6.2-11-9.2-18.4-8.3C49 40 41 50.1 41 64s8 24 19.6 25.3c7.4.9 13.9-2.1 18.4-8.3"/>
</svg>
